PathFileType	4	(X/Y/Z)	C:/Users/beibeiliu/ov580/test_trc/User3\out8_training_dense_left.trc
DataRate	CameraRate	NumFrames	NumMarkers	Units	OrigDataRate	OrigDataStartFrame	OrigNumFrames
120	120	14	19	mm	120	1	500
Frame#	Time	ThumbCMC			ThumbMCP			ThumbIP			ThumbTip			IndexMCP			IndexPIP			IndexTip			MiddleMCP			MiddlePIP			MiddleTip			RingMCP			RingPIP			RingTip			PinkyMCP			PinkyPIP			PinkyTip			BackHand1			BackHand2			BackHand3	
		X0	Y0	Z0	X1	Y1	Z1	X2	Y2	Z2	X3	Y3	Z3	X4	Y4	Z4	X5	Y5	Z5	X6	Y6	Z6	X7	Y7	Z7	X8	Y8	Z8	X9	Y9	Z9	X10	Y10	Z10	X11	Y11	Z11	X12	Y12	Z12	X13	Y13	Z13	X14	Y14	Z14	X15	Y15	Z15	X16	Y16	Z16	X17	Y17	Z17	X18	Y18	Z18	
0	0	-111.887	30.4753	64.3174	-95.7487	20.1431	41.8253	-78.6141	12.2925	17.2555	-72.4126	1.87759	-6.9609	-129.666	41.5306	-12.3112	-122.58	38.6276	-40.0096	-118.985	25.4123	-69.5926	-151.073	43.4106	-19.8747	-150.999	38.3429	-50.1321	-151.492	19.2376	-78.5078	-169.027	37.2283	-14.2626	-171.864	32.9352	-37.8095	-174.776	16.528	-62.1045	-191.936	28.2668	1.84441	-195.306	22.3588	-17.5238	-194.156	9.8684	-40.8489	-171.178	50.9279	35.1677	-172.954	54.4936	69.754	-139.81	53.9634	50.4237	
1	0.00833333	-114.299	29.4815	61.2866	-95.8028	20.5016	39.8955	-84.4722	11.6342	16.121	-73.7742	0.871565	-6.73822	-130.481	41.2053	-14.6496	-124.591	37.5202	-45.2251	-121.475	23.0228	-70.843	-150.762	42.6171	-23.6121	-150.422	37.9579	-48.9414	-152.135	17.7087	-79.4169	-173.75	37.1315	-13.6452	-171.017	31.498	-39.2921	-174.023	12.693	-67.4471	-189.871	27.0913	4.41893	-195.764	19.5869	-23.7863	-197.594	9.36394	-41.8429	-173.911	49.4623	37.5816	-172.77	55.2034	65.4711	-139.592	52.643	47.579	
2	0.0166667	-115.411	28.8855	63.8236	-98.4715	20.0505	43.1962	-81.5126	10.7738	14.1108	-76.1375	1.22311	-1.6638	-125.908	41.0407	-17.5348	-125.366	37.5244	-42.4022	-118.139	25.18	-66.8251	-153.732	42.7509	-19.9188	-151.457	36.9248	-49.5272	-149.722	18.6901	-77.8409	-169.131	36.7894	-11.3087	-171.768	29.0345	-42.9466	-175.293	12.4942	-65.9425	-191.723	28.019	2.90201	-196.385	19.5739	-21.4994	-195.896	7.07972	-40.6012	-175.19	50.1609	37.1239	-172.957	53.5924	65.4807	-141.887	52.4879	50.8209	
3	0.025	-112.203	29.3549	59.4403	-99.0909	19.6688	40.2564	-83.3751	10.6428	16.2181	-74.9495	0.776762	-0.0553656	-128.759	40.5806	-16.7813	-121.228	37.0389	-45.478	-123.72	25.6303	-65.7441	-151.298	42.3938	-18.4335	-151.693	36.1175	-51.4063	-152.291	17.7632	-78.033	-168.789	36.7815	-13.8992	-172.774	29.5083	-41.6723	-173.343	15.8432	-62.2114	-187.277	26.989	4.5883	-192.058	21.3927	-21.301	-196.464	9.213	-41.8278	-173.402	48.7895	34.3233	-176.861	53.7285	64.399	-140.443	52.6549	47.9062	
4	0.0333333	-116.348	28.2002	62.5686	-97.1902	19.3489	38.0964	-80.4268	10.1844	17.0734	-72.3641	0.0473192	-2.7575	-125.806	40.5604	-13.8987	-122.747	38.139	-41.3125	-118.876	26.036	-66.455	-148.646	43.3437	-24.4303	-148.337	34.5644	-53.7527	-148.902	18.963	-77.7495	-173.351	35.3419	-13.5457	-171.402	29.1344	-43.5944	-175.015	11.8926	-65.7927	-192.337	26.2243	1.34487	-190.779	20.7666	-20.187	-196.225	8.2444	-42.4989	-173.931	49.8261	34.4779	-170.915	53.7445	62.519	-140.946	51.0917	47.5106	
5	0.0416667	-115.376	28.1003	58.1253	-97.9253	19.6336	38.565	-82.5057	10.7301	12.8993	-72.2004	-0.0451915	-4.71485	-124.752	40.1876	-13.061	-125.303	36.3715	-45.4534	-119.348	25.3335	-66.6214	-152.452	42.1354	-23.7379	-148.815	36.3309	-51.7401	-151.808	17.8238	-78.5423	-173.621	35.4666	-14.0067	-174.276	28.7103	-43.4862	-176.453	13.8086	-63.8417	-189.903	27.4261	1.56269	-191.418	21.6656	-18.9994	-196.324	6.42427	-41.0387	-170.283	49.5367	37.6602	-173.011	52.645	64.3588	-137.38	50.9361	48.5669	
6	0.05	-112.9	28.3117	58.4245	-95.4346	19.056	37.7283	-83.992	8.76805	17.0926	-75.218	-0.204276	-3.71543	-128.803	40.0251	-18.3057	-121.734	36.7007	-41.6821	-121.735	24.5424	-66.9844	-153.392	41.7203	-24.4855	-148.736	36.4365	-49.7595	-150.169	16.9523	-80.8489	-168.925	35.3487	-11.9409	-173.064	29.4595	-40.8797	-172.863	12.4069	-67.685	-192.299	26.7483	1.04039	-193.731	18.6786	-24.2643	-196.165	5.57519	-42.7913	-169.118	47.3983	37.8733	-174.299	52.8603	65.8372	-140.515	52.4176	49.5541	
7	0.0583333	-113.809	28.4147	63.6552	-96.5921	18.4633	41.3937	-80.3922	9.83902	14.0521	-72.1863	-0.643225	-3.24112	-128.17	40.0589	-16.5448	-121.578	34.7973	-45.7469	-122.929	24.6854	-66.9782	-152.245	40.8922	-23.8139	-150.62	34.9769	-50.0314	-147.715	13.9354	-82.1166	-169.345	35.273	-12.7729	-176.076	28.5421	-40.7383	-176.184	13.2803	-63.7424	-192.366	27.0029	-0.986282	-193.434	19.5715	-20.4558	-195.526	3.17535	-44.2816	-175.158	47.3516	38.2806	-174.777	52.1872	64.323	-138.165	52.7295	48.879	
8	0.0666667	-114.429	27.4852	60.893	-97.9717	18.057	38.631	-85.1331	9.22097	15.7848	-75.3174	-0.865345	-6.67367	-128.178	39.8162	-14.0008	-122.993	35.3933	-46.3255	-117.81	21.7207	-70.2596	-151.739	41.3597	-20.1943	-153.375	34.1058	-53.1549	-150.191	15.7671	-79.7206	-171.526	35.5919	-14.2481	-175.547	29.306	-40.3072	-172.856	12.1544	-65.8098	-192.898	26.2159	3.74244	-193.637	19.8684	-19.2002	-197.083	5.02927	-42.7314	-172.704	46.7402	36.6354	-175.636	51.6786	67.4116	-140.318	50.4722	50.14	
9	0.075	-116.865	27.7537	62.5614	-94.5021	18.2735	39.7886	-80.4052	9.92456	18.3064	-77.1371	-1.33677	-2.3454	-127.071	39.5859	-15.1731	-125.449	36.9248	-41.6811	-121.45	24.4885	-68.1935	-150.216	41.8337	-22.4354	-148.874	35.8159	-51.2584	-148.941	17.1155	-78.4809	-168.226	36.0249	-15.2614	-176.281	30.4532	-38.9439	-174.407	13.0963	-64.1762	-188.333	25.9553	4.62857	-194.674	18.5904	-21.6188	-195.378	5.61266	-41.5364	-175.602	47.42	37.1915	-175.582	52.4648	63.1801	-139.55	51.282	50.8554	
10	0.0833333	-114.645	28.6326	60.4758	-96.8712	18.6441	40.1559	-82.2587	9.2035	16.1297	-73.6339	-0.876083	-4.62431	-129.628	38.8896	-16.5025	-122.908	35.7588	-42.5772	-122.394	22.9297	-69.8349	-151.757	41.7523	-24.1268	-150.047	35.5024	-50.0042	-153.068	17.6835	-78.3023	-174.722	34.6602	-13.4228	-175.713	30.0432	-39.2169	-173.951	13.5624	-66.0702	-188.606	25.9495	4.19088	-194.431	20.1141	-21.3697	-195.959	6.62618	-41.1892	-175.44	47.445	37.4858	-174.958	51.2321	62.276	-141.714	52.0995	49.5385	
11	0.0916667	-117.917	26.8182	62.1435	-94.0863	18.0809	41.1625	-80.143	9.15073	16.8833	-76.2212	-1.1117	-3.24258	-128.086	39.364	-17.772	-123.126	35.2282	-45.7868	-122.704	25.1227	-67.4981	-151.851	41.4897	-21.9876	-152.692	35.5387	-52.7839	-151.923	16.8454	-82.6833	-173.319	34.8569	-12.227	-172.659	30.3236	-39.4479	-176.597	15.61	-63.9534	-187.768	27.3176	-1.60058	-193.224	21.2853	-19.7586	-199.352	7.14016	-43.8089	-175.053	48.9103	34.7985	-177.105	52.2697	63.6393	-138.574	49.8342	47.3641	
12	0.1	-117.486	28.0741	56.7312	-99.442	17.0558	37.9245	-79.572	8.29914	15.5603	-72.1829	-0.682504	-4.80297	-127.284	41.2504	-19.6713	-121.326	37.2353	-45.9617	-121.404	26.4608	-67.6347	-150.023	42.9059	-24.744	-152.163	35.9403	-54.8482	-152.73	19.9764	-80.3305	-174.794	36.7485	-14.5834	-171.725	30.747	-43.6115	-175.446	14.799	-65.9832	-191.653	27.1289	1.95923	-195.563	22.3775	-19.9506	-198.344	9.93124	-46.056	-170.554	47.1354	33.0649	-174.143	51.1968	65.5868	-140.574	49.9885	49.3608	
13	0.108333	-116.167	26.1121	60.5967	-95.5185	17.2911	36.5588	-80.9397	9.38511	12.041	-74.6785	-0.902439	-8.34487	-132.005	43.306	-15.8119	-125.217	40.889	-43.7966	-122.88	23.7816	-70.5298	-152.641	46.6544	-25.5687	-151.182	38.6679	-54.3765	-150.832	19.1311	-78.7267	-172.411	39.5504	-16.1899	-174.128	33.8374	-40.2988	-174.098	15.2406	-63.8438	-189.277	30.6368	-2.11018	-196.845	23.0081	-25.2669	-197.344	12.3277	-45.8007	-172.172	47.3729	34.1882	-174.707	51.9231	64.1789	-141.135	52.6071	52.3366	
